# xmcd
#
# Track frame offsets: 
#        150
#        15012
#        29840
#        48622
#        66662
#        82977
#        99370
#        111615
#        127170
#        146410
#        163090
#        177262
#        195172
#
# Disc length: 2832 seconds
#
# Revision: 0
# Processed by: cddbd v1.5.2PL0 Copyright (c) Steve Scherf et al.
# Submitted via: ExactAudioCopy v0.99pb5
#
DISCID=b40b0e0d
DTITLE=Troy Cassar-Daley - Beyond the Dancing
DYEAR=1995
DGENRE=Country
TTITLE0=My Home Town
TTITLE1=Dream Out Loud
TTITLE2=End of the Road
TTITLE3=Working in Blues
TTITLE4=Beyond the Dancing
TTITLE5=Plant Your Fields
TTITLE6=Texas Swing
TTITLE7=Bitter Tears
TTITLE8=Six Stringer
TTITLE9=Send Me Down Your Love
TTITLE10=Greater Times
TTITLE11=No Regrets
TTITLE12=Ramblin Man
EXTD=
EXTT0=
EXTT1=
EXTT2=
EXTT3=
EXTT4=
EXTT5=
EXTT6=
EXTT7=
EXTT8=
EXTT9=
EXTT10=
EXTT11=
EXTT12=
PLAYORDER=
